<svg height="260pt" preserveAspectRatio="xMidYMid meet" viewBox="0 0 260 260" width="260pt" xmlns="http://www.w3.org/2000/svg"><path d="m1002 1757c-54-29-87-53-181-130-89-75-231-214-231-228 0-4 8-13 18-19 13-8-4-10-68-5-67 4-92 11-122 30-58 39-68 112-14 108 21-1 27 2 24 15-2 12-15 18-39 20-30 2-41-2-58-23-19-25-19-29-6-63 9-19 21-42 28-50 16-20 86-52 115-52 12 0 22-3 22-8 0-4-26-5-57-2-160 14-284-35-329-129-30-62-23-122 20-170 25-28 91-60 115-56 9 2 23 4 31 4 28 2 89 71 96 108 6 33-8 83-23 83-5 0-8-22-8-49 0-82-65-131-137-106-46 15-62 31-77 77-23 70 9 133 87 173 51 25 64 27 239 29 162 2 162 2 174-22 13-23 105-108 184-169 60-45 110-68 241-109 104-32 133-37 224-38 125-1 245 27 348 80 76 38 219 150 278 216 33 38 45 45 74 44 43-2 98-23 128-50 18-16 25-18 31-7 11 17 47-1 56-29 3-11 11-20 16-20 6 0 7 5 4 10-3 6-2 10 4 10 14 0 41-41 41-63 0-16 3-17 14-8 59 49-14 119-152 147-29 6-24 14 9 15 73 2 154 8 186 14 34 6 43 19 21 28-7 3 14 5 47 5 33-1 71 0 85 1l25 1-28 19-28 18 32 7c17 3 50 6 73 6 40 1 41 1 16 15-14 8-44 17-67 21-27 4-43 11-43 20 0 11-8 10-40-6-49-25-53-25-44 2 6 20 3 19-30-10-20-17-55-41-78-53-45-23-138-53-144-46-2 2 20 16 48 30 110 56 197 154 200 226 1 46-17 79-65 115-44 34-51 33-32-4 19-36 19-41 0-34-13 5-13 3 0-22 20-38 20-65 0-58-12 5-14-1-11-27 7-64-39-117-144-169l-65-31 48 41c58 51 76 83 72 133-1 29-11 47-35 70-25 24-31 27-26 12 4-11 9-33 11-48 4-23 1-27-14-22-15 4-17 0-13-27l5-32-27 17c-26 17-26 17-26-9 0-32-35-96-61-112-17-11-23-9-45 18-24 28-66 69-164 161-44 41-185 146-221 165-59 30-101 23-177-29-55-37-107-44-149-20-132 76-154 81-211 50z" transform="matrix(.1 0 0 -.1 0 260)"/></svg>